<svg width="548.902" height="75.201" viewBox="0 0 548.902 75.201" xmlns="http://www.w3.org/2000/svg"><g id="svgGroup" stroke-linecap="round" fill-rule="evenodd" font-size="9pt" stroke="#c6d3ff" stroke-width="0.25mm" fill="#c6d3ff" style="stroke:#c6d3ff;stroke-width:0.25mm;fill:#c6d3ff"><path d="M 509.601 69.8 L 513.401 62.3 A 18.557 18.557 0 0 0 516.544 64.426 Q 518.099 65.27 519.951 65.95 A 24.073 24.073 0 0 0 527.562 67.387 A 27.464 27.464 0 0 0 528.401 67.4 Q 533.793 67.4 536.635 65.685 A 7.738 7.738 0 0 0 536.851 65.55 Q 539.701 63.7 539.701 60.8 A 7.123 7.123 0 0 0 539.387 58.653 A 6.212 6.212 0 0 0 538.651 57.1 A 6.384 6.384 0 0 0 537.722 56.006 Q 536.708 55.034 535.034 54.081 A 22.3 22.3 0 0 0 534.801 53.95 A 28.462 28.462 0 0 0 532.806 52.957 Q 530.691 51.995 527.702 50.946 A 103.602 103.602 0 0 0 526.701 50.6 A 46.616 46.616 0 0 1 522.303 48.857 Q 520.189 47.883 518.513 46.795 A 19.335 19.335 0 0 1 515.751 44.65 A 11.324 11.324 0 0 1 512.457 38.654 A 16.794 16.794 0 0 1 512.101 35.1 Q 512.101 29.1 517.351 24.95 Q 521.755 21.469 529.009 20.908 A 37.527 37.527 0 0 1 531.901 20.8 A 40.794 40.794 0 0 1 536.346 21.031 Q 538.654 21.284 540.671 21.815 A 25.234 25.234 0 0 1 540.801 21.85 Q 544.701 22.9 547.801 24.5 L 545.301 31.9 Q 542.601 30.3 539.151 29.3 A 25.024 25.024 0 0 0 534.667 28.453 A 31.837 31.837 0 0 0 531.501 28.3 A 20.632 20.632 0 0 0 528.564 28.495 Q 525.478 28.94 523.601 30.4 A 9.322 9.322 0 0 0 522.243 31.673 Q 521.54 32.492 521.205 33.365 A 4.529 4.529 0 0 0 520.901 35 A 4.921 4.921 0 0 0 522.396 38.552 A 7.082 7.082 0 0 0 523.001 39.1 A 9.88 9.88 0 0 0 524.301 39.969 Q 526.574 41.271 530.999 42.734 A 84.459 84.459 0 0 0 531.201 42.8 A 67.753 67.753 0 0 1 536.263 44.698 Q 542.19 47.217 545.001 50.1 Q 548.901 54.1 548.901 60.1 Q 548.901 66.848 543.65 70.855 A 16.618 16.618 0 0 1 543.251 71.15 Q 538.511 74.547 531.062 75.095 A 40.423 40.423 0 0 1 528.101 75.2 Q 522.201 75.2 517.451 73.7 A 30.883 30.883 0 0 1 513.61 72.215 Q 511.63 71.284 510.048 70.136 A 18.229 18.229 0 0 1 509.601 69.8 Z M 37.901 27.2 L 37.901 0 L 46.901 0 L 46.901 61.4 A 12.15 12.15 0 0 0 47.002 63.036 Q 47.334 65.47 48.751 66.35 Q 50.601 67.5 52.801 67.5 L 50.901 74.5 Q 41.401 74.5 39.301 66.9 Q 37.101 70 33.151 72.6 Q 29.201 75.2 23.201 75.2 Q 16.801 75.2 11.501 71.9 A 22.692 22.692 0 0 1 3.963 64.109 A 27.622 27.622 0 0 1 3.101 62.55 A 27.533 27.533 0 0 1 0.512 54.608 A 37.221 37.221 0 0 1 0.001 48.3 A 33.94 33.94 0 0 1 0.89 40.386 A 27.963 27.963 0 0 1 3.151 34.2 A 27.291 27.291 0 0 1 7.769 27.609 A 24.186 24.186 0 0 1 11.551 24.4 Q 16.801 20.8 23.101 20.8 A 21.642 21.642 0 0 1 27.373 21.202 A 15.942 15.942 0 0 1 32.051 22.9 A 34.343 34.343 0 0 1 34.631 24.489 Q 35.854 25.324 36.826 26.174 A 16.59 16.59 0 0 1 37.901 27.2 Z M 316.601 27.2 L 316.601 0 L 325.601 0 L 325.601 61.4 A 12.15 12.15 0 0 0 325.702 63.036 Q 326.034 65.47 327.451 66.35 Q 329.301 67.5 331.501 67.5 L 329.601 74.5 Q 320.101 74.5 318.001 66.9 Q 315.801 70 311.851 72.6 Q 307.901 75.2 301.901 75.2 Q 295.501 75.2 290.201 71.9 A 22.692 22.692 0 0 1 282.663 64.109 A 27.622 27.622 0 0 1 281.801 62.55 A 27.533 27.533 0 0 1 279.212 54.608 A 37.221 37.221 0 0 1 278.701 48.3 A 33.94 33.94 0 0 1 279.59 40.386 A 27.963 27.963 0 0 1 281.851 34.2 A 27.291 27.291 0 0 1 286.469 27.609 A 24.186 24.186 0 0 1 290.251 24.4 Q 295.501 20.8 301.801 20.8 A 21.642 21.642 0 0 1 306.073 21.202 A 15.942 15.942 0 0 1 310.751 22.9 A 34.343 34.343 0 0 1 313.331 24.489 Q 314.554 25.324 315.526 26.174 A 16.59 16.59 0 0 1 316.601 27.2 Z M 501.801 51.7 L 465.401 51.7 A 24.088 24.088 0 0 0 466.54 56.725 Q 467.876 60.538 470.501 63.1 Q 474.701 67.2 481.601 67.2 Q 486.101 67.2 489.701 66.25 Q 493.301 65.3 496.601 63.8 L 498.701 71.5 A 40.77 40.77 0 0 1 494.366 73.126 A 51.863 51.863 0 0 1 490.601 74.15 A 38.914 38.914 0 0 1 485.509 74.969 A 52.025 52.025 0 0 1 480.501 75.2 A 28.318 28.318 0 0 1 472.754 74.195 A 21.108 21.108 0 0 1 462.751 68.05 A 23.521 23.521 0 0 1 457.545 58.51 Q 456.201 53.845 456.201 48 A 35.359 35.359 0 0 1 457.033 40.178 A 28.84 28.84 0 0 1 459.151 34.05 A 24.642 24.642 0 0 1 464.167 26.968 A 22.887 22.887 0 0 1 467.401 24.35 A 21.048 21.048 0 0 1 477.66 20.878 A 26.205 26.205 0 0 1 479.701 20.8 Q 487.201 20.8 492.151 24.05 Q 497.101 27.3 499.601 32.8 A 28.185 28.185 0 0 1 502.027 42.664 A 33.434 33.434 0 0 1 502.101 44.9 A 75.204 75.204 0 0 1 501.81 51.597 A 69.426 69.426 0 0 1 501.801 51.7 Z M 431.701 74 L 422.301 74 L 401.401 24.4 L 409.601 21 L 427.301 63.8 L 445.001 21 L 452.701 24.4 L 431.701 74 Z M 196.101 26.2 L 196.101 22 L 204.301 22 L 204.301 61.4 A 12.15 12.15 0 0 0 204.402 63.036 Q 204.734 65.47 206.151 66.35 Q 208.001 67.5 210.201 67.5 L 208.301 74.5 A 17.722 17.722 0 0 1 204.036 74.028 Q 198.399 72.628 196.804 67.08 A 13.59 13.59 0 0 1 196.701 66.7 A 21.307 21.307 0 0 1 193.591 70.126 A 28.498 28.498 0 0 1 190.451 72.55 Q 186.501 75.2 180.401 75.2 Q 173.901 75.2 168.601 71.9 A 22.947 22.947 0 0 1 161.187 64.373 A 27.923 27.923 0 0 1 160.151 62.55 A 27.228 27.228 0 0 1 157.52 54.608 A 36.644 36.644 0 0 1 157.001 48.3 A 33.142 33.142 0 0 1 157.997 40.031 A 27.968 27.968 0 0 1 160.151 34.3 Q 163.301 28.1 168.851 24.45 A 22.297 22.297 0 0 1 180.045 20.844 A 27.388 27.388 0 0 1 181.601 20.8 A 22.584 22.584 0 0 1 186.394 21.29 A 18.703 18.703 0 0 1 189.751 22.35 A 26.002 26.002 0 0 1 194.037 24.644 A 22.103 22.103 0 0 1 196.101 26.2 Z M 132.601 74 L 123.601 74 L 123.601 22 L 132.301 22 L 132.301 33.3 Q 133.601 30 135.801 27.15 Q 138.001 24.3 141.301 22.55 A 14.817 14.817 0 0 1 145.98 21.026 A 19.459 19.459 0 0 1 149.001 20.8 Q 150.501 20.8 152.001 20.95 A 18.972 18.972 0 0 1 153.055 21.084 Q 153.555 21.162 153.982 21.262 A 8.817 8.817 0 0 1 154.501 21.4 L 151.801 30.7 A 9.763 9.763 0 0 0 149.655 30.088 Q 148.56 29.9 147.301 29.9 A 12.958 12.958 0 0 0 140.671 31.746 A 15.609 15.609 0 0 0 140.251 32 Q 136.923 34.086 134.779 38.442 A 22.927 22.927 0 0 0 134.751 38.5 Q 132.988 42.107 132.67 47.328 A 39.09 39.09 0 0 0 132.601 49.7 L 132.601 74 Z M 352.501 74 L 343.501 74 L 343.501 22 L 352.201 22 L 352.201 33.3 Q 353.501 30 355.701 27.15 Q 357.901 24.3 361.201 22.55 A 14.817 14.817 0 0 1 365.88 21.026 A 19.459 19.459 0 0 1 368.901 20.8 Q 370.401 20.8 371.901 20.95 A 18.972 18.972 0 0 1 372.955 21.084 Q 373.455 21.162 373.882 21.262 A 8.817 8.817 0 0 1 374.401 21.4 L 371.701 30.7 A 9.763 9.763 0 0 0 369.555 30.088 Q 368.46 29.9 367.201 29.9 A 12.958 12.958 0 0 0 360.571 31.746 A 15.609 15.609 0 0 0 360.151 32 Q 356.823 34.086 354.679 38.442 A 22.927 22.927 0 0 0 354.651 38.5 Q 352.888 42.107 352.57 47.328 A 39.09 39.09 0 0 0 352.501 49.7 L 352.501 74 Z M 72.401 71.75 A 24.559 24.559 0 0 0 76.999 73.84 Q 81.054 75.2 85.701 75.2 Q 93.101 75.2 98.951 71.8 Q 104.801 68.4 108.201 62.25 A 26.255 26.255 0 0 0 110.853 55.109 A 34.184 34.184 0 0 0 111.601 47.8 A 34.542 34.542 0 0 0 111.115 41.891 A 25.795 25.795 0 0 0 108.151 33.45 Q 104.701 27.4 98.851 24.1 A 24.848 24.848 0 0 0 94.209 22.073 A 27.738 27.738 0 0 0 85.701 20.8 A 31.325 31.325 0 0 0 84.12 20.839 A 26.169 26.169 0 0 0 72.501 24.1 Q 66.601 27.4 63.201 33.5 A 26.023 26.023 0 0 0 60.451 41.09 A 35.006 35.006 0 0 0 59.801 48 A 34.82 34.82 0 0 0 60.066 52.354 A 27.451 27.451 0 0 0 63.151 62.15 Q 66.501 68.3 72.401 71.75 Z M 392.401 74 L 383.401 74 L 383.401 22 L 392.401 22 L 392.401 74 Z M 85.701 67.2 Q 93.601 67.2 98.001 61.85 A 18.802 18.802 0 0 0 101.82 53.76 A 27.105 27.105 0 0 0 102.401 48 Q 102.401 42.8 100.201 38.45 A 19.198 19.198 0 0 0 96.029 32.881 A 18.17 18.17 0 0 0 94.251 31.45 Q 90.501 28.8 85.701 28.8 A 19.249 19.249 0 0 0 80.474 29.472 A 14.037 14.037 0 0 0 73.401 34 A 17.878 17.878 0 0 0 69.727 41.374 Q 69.001 44.306 69.001 47.8 Q 69.001 53 71.201 57.45 A 19.437 19.437 0 0 0 74.73 62.49 A 17.627 17.627 0 0 0 77.151 64.55 Q 80.901 67.2 85.701 67.2 Z M 195.301 60.7 L 195.301 32.8 Q 192.601 30.9 189.351 29.75 Q 186.101 28.6 182.501 28.6 A 15.924 15.924 0 0 0 177.529 29.354 A 14.024 14.024 0 0 0 174.051 31.05 A 16.301 16.301 0 0 0 169.031 36.474 A 19.962 19.962 0 0 0 168.301 37.85 A 20.663 20.663 0 0 0 166.547 43.527 A 27.678 27.678 0 0 0 166.201 48 Q 166.201 53.6 168.301 57.95 A 17.602 17.602 0 0 0 171.406 62.496 A 15.697 15.697 0 0 0 174.101 64.75 Q 177.801 67.2 182.401 67.2 Q 186.201 67.2 189.601 65.35 Q 193.001 63.5 195.301 60.7 Z M 37.901 60.9 L 37.901 35.1 A 15.847 15.847 0 0 0 35.79 32.927 Q 34.669 31.964 33.27 31.066 A 28.139 28.139 0 0 0 32.601 30.65 Q 29.201 28.6 25.101 28.6 A 14.946 14.946 0 0 0 20.145 29.4 A 13.385 13.385 0 0 0 16.701 31.2 A 16.69 16.69 0 0 0 11.531 37.35 A 19.924 19.924 0 0 0 11.151 38.15 A 22.19 22.19 0 0 0 9.411 44.514 A 28.113 28.113 0 0 0 9.201 48 A 24.757 24.757 0 0 0 9.793 53.519 A 20.327 20.327 0 0 0 11.301 57.85 A 18.205 18.205 0 0 0 14.341 62.363 A 16.122 16.122 0 0 0 17.051 64.7 Q 20.701 67.2 25.201 67.2 Q 28.901 67.2 32.251 65.45 Q 35.601 63.7 37.901 60.9 Z M 316.601 60.9 L 316.601 35.1 A 15.847 15.847 0 0 0 314.49 32.927 Q 313.369 31.964 311.97 31.066 A 28.139 28.139 0 0 0 311.301 30.65 Q 307.901 28.6 303.801 28.6 A 14.946 14.946 0 0 0 298.845 29.4 A 13.385 13.385 0 0 0 295.401 31.2 A 16.69 16.69 0 0 0 290.231 37.35 A 19.924 19.924 0 0 0 289.851 38.15 A 22.19 22.19 0 0 0 288.111 44.514 A 28.113 28.113 0 0 0 287.901 48 A 24.757 24.757 0 0 0 288.493 53.519 A 20.327 20.327 0 0 0 290.001 57.85 A 18.205 18.205 0 0 0 293.041 62.363 A 16.122 16.122 0 0 0 295.751 64.7 Q 299.401 67.2 303.901 67.2 Q 307.601 67.2 310.951 65.45 Q 314.301 63.7 316.601 60.9 Z M 261.201 43.8 L 227.201 43.8 L 227.201 35.6 L 261.201 35.6 L 261.201 43.8 Z M 465.301 44.4 L 493.801 44.4 A 24.355 24.355 0 0 0 493.396 39.815 Q 492.9 37.231 491.796 35.207 A 12.422 12.422 0 0 0 490.001 32.7 A 12.488 12.488 0 0 0 483.04 28.924 A 18.395 18.395 0 0 0 479.501 28.6 A 13.58 13.58 0 0 0 474.389 29.535 A 12.524 12.524 0 0 0 469.901 32.65 Q 466.101 36.7 465.301 44.4 Z M 383.538 11.288 A 5.973 5.973 0 0 0 387.901 13.1 A 8.175 8.175 0 0 0 389.397 12.969 A 5.647 5.647 0 0 0 392.501 11.35 Q 394.201 9.6 394.201 6.8 A 7.26 7.26 0 0 0 394.2 6.719 A 6.06 6.06 0 0 0 392.351 2.35 A 7.395 7.395 0 0 0 392.293 2.293 A 6.059 6.059 0 0 0 387.901 0.5 A 8.264 8.264 0 0 0 386.245 0.658 A 5.661 5.661 0 0 0 383.301 2.2 A 5.588 5.588 0 0 0 381.83 4.832 A 7.987 7.987 0 0 0 381.601 6.8 A 5.992 5.992 0 0 0 382.092 9.219 A 6.643 6.643 0 0 0 383.451 11.2 A 7.466 7.466 0 0 0 383.538 11.288 Z" vector-effect="non-scaling-stroke"/></g></svg>